<svg xmlns="http://www.w3.org/2000/svg" viewBox="0 0 32 32" width="32" height="32">
  <title>Skill lernen</title>
  <rect x="1" y="1" width="30" height="30" rx="5" fill="#17402c" stroke="#0b2418" stroke-width="1"/>
  <!-- open book = learning -->
  <path d="M3 9 C7 7 12 7 15.5 9.5 L15.5 25 C12 22.5 7 22.5 3 24.5 Z" fill="#e8f5ee"/>
  <path d="M29 9 C25 7 20 7 16.5 9.5 L16.5 25 C20 22.5 25 22.5 29 24.5 Z" fill="#bfe6d2"/>
  <path d="M15.5 9.5 L16.5 9.5 L16.5 25 L15.5 25 Z" fill="#2f9e68"/>
  <!-- globe = optional research -->
  <circle cx="24.5" cy="7" r="5.5" fill="#123049" stroke="#7ec8ff" stroke-width="1.2"/>
  <ellipse cx="24.5" cy="7" rx="2.3" ry="5.5" fill="none" stroke="#7ec8ff" stroke-width="1"/>
  <path d="M19 7 h11 M20.2 4.2 h8.6 M20.2 9.8 h8.6" stroke="#7ec8ff" stroke-width="1" fill="none"/>
</svg>
